<?xml version="1.0" standalone="no"?>
<!DOCTYPE svg PUBLIC "-//W3C//DTD SVG 20010904//EN"
        "http://www.w3.org/TR/2001/REC-SVG-20010904/DTD/svg10.dtd">
<svg version="1.0" xmlns="http://www.w3.org/2000/svg"
     width="40.000000pt" height="40.800000pt" viewBox="0 0 624.000000 596.800000"
     preserveAspectRatio="xMidYMid meet">
    <metadata>
        Created by potrace 1.13, written by Peter Selinger 2001-2015
    </metadata>
    <g transform="translate(0.000000,596.800000) scale(0.080000,-0.080000)"
       fill="url(#paint0_linear)" stroke="none">
        <path d="M3715 7400 c-170 -33 -654 -122 -1075 -200 -2359 -434 -2320 -426
-2372 -449 -109 -47 -209 -163 -248 -288 -19 -63 -20 -100 -15 -2571 3 -1379
7 -2568 9 -2642 4 -108 9 -147 27 -195 29 -78 86 -162 140 -207 93 -75 118
-83 667 -193 284 -57 796 -161 1137 -230 1879 -381 2059 -416 2116 -412 99 8
180 62 227 152 l27 50 3 3495 c2 3912 9 3556 -73 3648 -53 59 -125 93 -204 97
-38 3 -157 -16 -366 -55z m-2227 -2910 c343 -97 560 -415 579 -851 10 -227
-25 -415 -107 -581 -104 -208 -276 -355 -477 -410 -110 -29 -316 -29 -424 0
-305 82 -513 342 -575 717 -18 112 -15 358 6 455 37 175 113 336 216 456 104
122 251 201 432 234 78 15 268 4 350 -20z m1661 -7 c8 -17 277 -663 616 -1483
79 -190 141 -348 138 -352 -2 -5 -66 -8 -142 -8 l-137 0 -74 178 c-40 97 -89
214 -108 260 l-34 82 -401 -2 -400 -3 -101 -245 c-56 -135 -105 -251 -109
-257 -10 -15 -272 -19 -281 -4 -3 5 12 51 33 102 21 52 93 225 159 384 151
365 553 1336 559 1353 4 9 41 12 139 12 117 0 134 -2 143 -17z"/>
        <path d="M1129 4236 c-74 -21 -147 -66 -200 -124 -132 -144 -188 -333 -176
-596 6 -144 22 -215 72 -322 84 -183 202 -280 373 -304 209 -29 395 67 494
255 123 237 129 593 12 830 -90 185 -235 276 -438 274 -50 0 -112 -7 -137 -13z"/>
        <path d="M2976 4043 c-15 -37 -79 -192 -142 -344 -63 -152 -114 -280 -114
-283 0 -3 131 -6 290 -6 160 0 290 2 290 4 0 2 -9 23 -19 47 -10 24 -74 177
-141 339 -67 162 -125 299 -130 303 -4 5 -20 -22 -34 -60z"/>
        <path d="M5148 6751 c-76 -25 -148 -79 -192 -145 -64 -97 -66 -115 -66 -648
l0 -478 973 0 c1098 0 1016 6 1090 -80 62 -73 81 -137 81 -270 0 -133 -19
-197 -81 -270 -74 -86 8 -80 -1091 -80 l-972 0 2 -347 3 -348 990 -5 990 -5
33 -24 c50 -35 90 -97 114 -174 17 -57 20 -87 16 -169 -5 -91 -8 -106 -44
-176 -29 -57 -50 -84 -82 -107 l-44 -30 -989 -3 -989 -2 0 -285 0 -285 977 0
c964 0 977 0 1019 -21 49 -23 84 -66 122 -147 25 -52 27 -67 27 -177 0 -103
-4 -129 -24 -179 -32 -79 -104 -153 -158 -161 -21 -3 -470 -7 -998 -8 l-960
-2 0 -575 0 -575 28 -60 c37 -79 114 -156 191 -192 l61 -28 1170 0 1170 0 57
23 c75 30 147 96 189 174 l34 63 0 2775 0 2775 -29 58 c-36 71 -108 140 -184
175 l-57 27 -1160 2 c-1100 2 -1163 1 -1217 -16z"/>
    </g>
    <defs>
        <linearGradient id="paint0_linear" x1="2.94192" y1="4.89955" x2="37.7772" y2="39.7345"
                        gradientUnits="userSpaceOnUse" gradientTransform="rotate(270)">
            <stop offset="50%" stop-color="#28F755" />
            <stop offset="95%" stop-color="#1E60F7" />
        </linearGradient>

    </defs>
</svg>
